<svg width="346" height="303" viewBox="0 0 346 303" fill="none" xmlns="http://www.w3.org/2000/svg">
<path d="M146.307 117C144.354 111.022 141.779 105.666 138.583 100.931C135.446 96.1371 131.688 92.0533 127.308 88.6797C122.988 85.3061 118.075 82.7315 112.571 80.956C107.067 79.1804 101.03 78.2926 94.4602 78.2926C83.6885 78.2926 73.8932 81.0743 65.0746 86.6378C56.2559 92.2012 49.2424 100.398 44.0341 111.229C38.8258 122.06 36.2216 135.348 36.2216 151.091C36.2216 166.834 38.8554 180.121 44.1229 190.952C49.3904 201.783 56.5223 209.981 65.5185 215.544C74.5147 221.107 84.6354 223.889 95.8807 223.889C106.297 223.889 115.471 221.67 123.402 217.231C131.392 212.733 137.607 206.4 142.045 198.232C146.544 190.005 148.793 180.329 148.793 169.202L155.54 170.622H100.852V151.091H170.099V170.622C170.099 185.596 166.903 198.617 160.511 209.685C154.179 220.752 145.419 229.334 134.233 235.43C123.106 241.467 110.322 244.486 95.8807 244.486C79.7822 244.486 65.6368 240.698 53.4446 233.122C41.3116 225.546 31.8419 214.775 25.0355 200.807C18.2884 186.839 14.9148 170.267 14.9148 151.091C14.9148 136.709 16.8383 123.777 20.6854 112.295C24.5916 100.754 30.0959 90.9287 37.1982 82.8203C44.3004 74.7119 52.7048 68.4974 62.4112 64.1768C72.1177 59.8563 82.8007 57.696 94.4602 57.696C104.048 57.696 112.985 59.1461 121.271 62.0462C129.616 64.8871 137.044 68.9413 143.555 74.2088C150.124 79.4171 155.599 85.6612 159.979 92.941C164.358 100.162 167.377 108.181 169.034 117H146.307ZM307.24 105.636C306.175 96.6402 301.854 89.6562 294.278 84.6847C286.702 79.7131 277.41 77.2273 266.402 77.2273C258.353 77.2273 251.309 78.5293 245.273 81.1335C239.295 83.7377 234.619 87.3184 231.246 91.8757C227.931 96.433 226.274 101.612 226.274 107.412C226.274 112.265 227.428 116.438 229.736 119.93C232.104 123.362 235.122 126.233 238.792 128.541C242.461 130.79 246.308 132.655 250.333 134.134C254.358 135.555 258.057 136.709 261.43 137.597L279.896 142.568C284.631 143.811 289.898 145.527 295.699 147.717C301.558 149.907 307.151 152.896 312.478 156.684C317.864 160.413 322.303 165.207 325.795 171.066C329.287 176.925 331.032 184.116 331.032 192.639C331.032 202.464 328.458 211.342 323.309 219.273C318.219 227.204 310.761 233.507 300.937 238.183C291.171 242.858 279.304 245.196 265.336 245.196C252.316 245.196 241.041 243.095 231.512 238.893C222.042 234.691 214.585 228.831 209.14 221.315C203.754 213.798 200.706 205.068 199.996 195.125H222.723C223.315 201.991 225.623 207.672 229.648 212.17C233.731 216.609 238.881 219.924 245.095 222.114C251.369 224.244 258.116 225.31 265.336 225.31C273.741 225.31 281.287 223.948 287.975 221.226C294.663 218.444 299.96 214.597 303.866 209.685C307.773 204.713 309.726 198.913 309.726 192.284C309.726 186.247 308.039 181.335 304.665 177.547C301.292 173.759 296.853 170.681 291.349 168.314C285.844 165.946 279.896 163.875 273.504 162.099L251.132 155.707C236.927 151.624 225.682 145.794 217.396 138.218C209.11 130.642 204.967 120.729 204.967 108.477C204.967 98.2973 207.719 89.4195 213.224 81.8438C218.787 74.2088 226.244 68.2902 235.596 64.0881C245.006 59.8267 255.512 57.696 267.112 57.696C278.831 57.696 289.247 59.7971 298.362 63.9993C307.477 68.1423 314.697 73.8241 320.024 81.0447C325.41 88.2654 328.251 96.4626 328.547 105.636H307.24Z" fill="black"/>
</svg>
